<?xml version="1.0" encoding="UTF-8" standalone="no"?>
<!DOCTYPE svg PUBLIC "-//W3C//DTD SVG 1.1//EN" "http://www.w3.org/Graphics/SVG/1.1/DTD/svg11.dtd">

<!-- Created with Vectornator (http://vectornator.io/) -->
<svg height="100%" stroke-miterlimit="10" style="fill-rule:nonzero;clip-rule:evenodd;stroke-linecap:round;stroke-linejoin:round;" version="1.1" viewBox="0 0 48 48" width="100%" xml:space="preserve" xmlns="http://www.w3.org/2000/svg" xmlns:vectornator="http://vectornator.io" xmlns:xlink="http://www.w3.org/1999/xlink">
<metadata>
<vectornator:setting key="IsTimeLapseWatermarkDisabled" value="false"/>
<vectornator:setting key="UndoHistoryDisabled" value="true"/>
<vectornator:setting key="VNDimensionsVisible" value="true"/>
<vectornator:setting key="VNSnapToGuides" value="true"/>
<vectornator:setting key="WDCMYKEnabledKey" value="false"/>
<vectornator:setting key="WDDisplayWhiteBackground" value="false"/>
<vectornator:setting key="WDDynamicGuides" value="false"/>
<vectornator:setting key="WDGuidesVisible" value="true"/>
<vectornator:setting key="WDIsolateActiveLayer" value="false"/>
<vectornator:setting key="WDOutlineMode" value="false"/>
<vectornator:setting key="WDRulersVisible" value="true"/>
<vectornator:setting key="WDSnapToEdges" value="false"/>
<vectornator:setting key="WDSnapToGrid" value="false"/>
<vectornator:setting key="WDSnapToPoints" value="false"/>
<vectornator:setting key="WDUnits" value="Points"/>
</metadata>
<defs/>
<g id="Layer-1" vectornator:layerName="Layer 1">
<path d="M5.24517 0.5L42.7548 0.5C45.3755 0.5 47.5 2.62447 47.5 5.24517L47.5 42.7548C47.5 45.3755 45.3755 47.5 42.7548 47.5L5.24517 47.5C2.62447 47.5 0.5 45.3755 0.5 42.7548L0.5 5.24517C0.5 2.62447 2.62447 0.5 5.24517 0.5Z" fill="#fbe6c5" fill-rule="evenodd" opacity="1" stroke="#000000" stroke-linecap="round" stroke-linejoin="round" stroke-width="0.6"/>
<path d="M30.3016 17.8636C29.2755 17.3103 28.5685 16.5712 28.8335 15.2837C29.0287 14.3361 29.3014 14.0094 29.9361 13.7434C30.4883 13.5119 31.0276 13.8819 31.0329 14.5107C31.0403 15.3703 30.5563 15.624 30.1598 15.5648C29.7049 15.4968 29.6931 14.6349 29.6931 14.6349C29.6931 14.6349 29.2324 15.2034 29.7605 15.7871C30.1027 16.1653 31.5824 16.0095 31.6385 14.4516C31.686 13.1291 30.5568 12.7829 30.1439 12.7776C29.032 12.7635 28.122 14.1369 27.88 15.1562C27.4251 17.0721 27.5262 17.0145 26.9375 18.3549C25.9972 20.4962 24.5558 21.8863 24.3882 22.6844L24.351 22.6194C24.0833 22.1528 21.8484 21.114 21.2368 19.0346C20.582 16.8088 21.5578 13.5501 21.5578 13.5501C21.5578 13.5501 20.3821 14.6681 19.3869 16.1361C17.1628 19.4173 17.0364 20.8123 17.0364 20.8123C16.8375 20.3751 16.5672 20.1951 16.7172 18.1816C16.7742 17.4158 17.0987 16.957 16.6543 14.927C16.2078 12.8874 15.4151 11.9234 15.4151 11.9234C15.4151 11.9234 15.8641 13.8902 14.802 16.3865C13.6795 19.0249 11.5333 20.7115 12.774 25.8331C14.0417 31.0663 19.9533 32.7189 24.5309 32.6173C25.4605 32.5966 30.0677 32.0802 32.637 29.9336C33.8595 28.9123 36.8636 26.3792 35.0129 22.2183C33.6656 19.189 31.9156 18.7339 30.3016 17.8636Z" fill="#000000" fill-rule="evenodd" opacity="1" stroke="#000000" stroke-linecap="square" stroke-linejoin="miter" stroke-width="0.1"/>
<path d="M12.6777 32.2763L34.9409 42.171" fill="#fbe6c5" fill-rule="evenodd" opacity="1" stroke="#000000" stroke-linecap="round" stroke-linejoin="round" stroke-width="4"/>
<path d="M12.8684 42.1251L28.084 35.3627L30.2613 34.395L35.1316 32.2304" fill="#fbe6c5" fill-rule="evenodd" opacity="1" stroke="#fbe6c5" stroke-linecap="round" stroke-linejoin="round" stroke-width="5"/>
<path d="M12.6777 42.2272L26.5883 36.0447L29.8888 34.5778L34.9409 32.3325" fill="#fbe6c5" fill-rule="evenodd" opacity="1" stroke="#000000" stroke-linecap="round" stroke-linejoin="round" stroke-width="4"/>
<path d="M17.8383 24.0852C17.8383 24.0852 16.3248 31.1475 23.8112 31.1039C32.4987 31.0534 29.4005 24.2333 29.2375 24.3812C27.5014 25.9563 23.8112 28.0062 21.677 24.0852C21.1803 23.1726 20.5022 22.9579 19.854 23.0409C18.8071 23.1748 17.8383 24.0852 17.8383 24.0852Z" fill="#fbe6c5" fill-rule="evenodd" opacity="1" stroke="#000000" stroke-linecap="square" stroke-linejoin="miter" stroke-width="0.5"/>
</g>
<g id="Layer-2" vectornator:layerName="Layer 2">
<g opacity="1">
<path d="M24 5.47447L6.48395 13.3871" fill="#000000" fill-rule="evenodd" stroke="none"/>
<path d="M24 4.21875C18.1613 6.85671 12.3074 9.48704 6.46875 12.125C6.46178 12.125 6.46783 12.6775 6.46875 13.375C6.46967 14.0725 6.49302 14.6563 6.5 14.6562C12.3387 12.0191 18.1613 9.38712 24 6.75C24.007 6.74999 24.0009 6.16692 24 5.46875C23.9991 4.77058 24.007 4.21874 24 4.21875Z" fill="#000000" stroke="none"/>
</g>
<g opacity="1">
<path d="M41.5161 13.3871L24 5.47447" fill="#000000" fill-rule="evenodd" stroke="none"/>
<path d="M24 4.21875C23.993 4.21876 23.9991 4.77127 24 5.46875C24.0009 6.16623 23.993 6.75001 24 6.75C29.8387 9.38796 35.6926 12.0183 41.5312 14.6562L41.5312 13.375C41.5304 12.6768 41.507 12.125 41.5 12.125C35.6613 9.48788 29.8387 6.85587 24 4.21875Z" fill="#000000" stroke="none"/>
</g>
</g>
</svg>
