<?xml version="1.0" encoding="UTF-8" standalone="no"?>
<!DOCTYPE svg PUBLIC "-//W3C//DTD SVG 1.1//EN" "http://www.w3.org/Graphics/SVG/1.1/DTD/svg11.dtd">

<!-- Created with Vectornator (http://vectornator.io/) -->
<svg height="100%" stroke-miterlimit="10" style="fill-rule:nonzero;clip-rule:evenodd;stroke-linecap:round;stroke-linejoin:round;" version="1.1" viewBox="0 0 48 48" width="100%" xml:space="preserve" xmlns="http://www.w3.org/2000/svg" xmlns:vectornator="http://vectornator.io" xmlns:xlink="http://www.w3.org/1999/xlink">
<metadata>
<vectornator:setting key="IsTimeLapseWatermarkDisabled" value="false"/>
<vectornator:setting key="UndoHistoryDisabled" value="true"/>
<vectornator:setting key="VNDimensionsVisible" value="true"/>
<vectornator:setting key="VNSnapToGuides" value="true"/>
<vectornator:setting key="WDCMYKEnabledKey" value="false"/>
<vectornator:setting key="WDDisplayWhiteBackground" value="false"/>
<vectornator:setting key="WDDynamicGuides" value="false"/>
<vectornator:setting key="WDGuidesVisible" value="true"/>
<vectornator:setting key="WDIsolateActiveLayer" value="false"/>
<vectornator:setting key="WDOutlineMode" value="false"/>
<vectornator:setting key="WDRulersVisible" value="true"/>
<vectornator:setting key="WDSnapToEdges" value="false"/>
<vectornator:setting key="WDSnapToGrid" value="false"/>
<vectornator:setting key="WDSnapToPoints" value="false"/>
<vectornator:setting key="WDUnits" value="Points"/>
</metadata>
<defs/>
<g id="Layer-1" vectornator:layerName="Layer 1">
<path d="M5.24517 0.5L42.7548 0.5C45.3755 0.5 47.5 2.62447 47.5 5.24517L47.5 42.7548C47.5 45.3755 45.3755 47.5 42.7548 47.5L5.24517 47.5C2.62447 47.5 0.5 45.3755 0.5 42.7548L0.5 5.24517C0.5 2.62447 2.62447 0.5 5.24517 0.5Z" fill="#fbe6c5" fill-rule="evenodd" opacity="1" stroke="#000000" stroke-linecap="round" stroke-linejoin="round" stroke-width="0.6"/>
</g>
<g id="Layer-2" vectornator:layerName="Layer 2">
<g opacity="1">
<path d="M29.9908 15.7922C37.9908 33.7922 37.9908 33.7922 37.9908 33.7922" fill="#000000" fill-rule="evenodd" stroke="none"/>
<path d="M28.8438 15.7812C31.5108 21.7813 34.1767 27.7812 36.8438 33.7812C36.8437 33.7875 37.3723 33.8114 38 33.8125C38.6277 33.8136 39.125 33.7875 39.125 33.7812C36.4587 27.7813 33.7913 21.7812 31.125 15.7812L28.8438 15.7812Z" fill="#000000" stroke="none"/>
</g>
<g opacity="1">
<path d="M17.98 15.7922C9.98 33.7922 9.98 33.7922 9.98 33.7922" fill="#000000" fill-rule="evenodd" stroke="none"/>
<path d="M16.8438 15.7812C14.1775 21.7813 11.51 27.7813 8.84375 33.7812C8.84374 33.7875 9.34102 33.8114 9.96875 33.8125C10.5965 33.8136 11.125 33.7875 11.125 33.7812C13.792 27.7813 16.458 21.7812 19.125 15.7812L16.8438 15.7812Z" fill="#000000" stroke="none"/>
</g>
<g opacity="1">
<path d="M35 20.96L44 20.96L44 20.9602L35 20.9602L35 20.96Z" fill="#000000" fill-rule="evenodd" stroke="none"/>
<path d="M35 19.9375C35.0005 20.1105 34.9941 19.9498 35 20.4688C34.9973 20.6503 35.0015 20.6979 35 20.9688C34.9936 21.24 34.9973 21.4374 35 21.4375C35.0059 21.9569 34.9888 21.407 35 21.9688C35 21.9692 35.1491 21.9687 35.1562 21.9688C35.7941 21.9417 35.7588 21.846 36.125 21.9688C36.875 21.9688 37.625 21.9687 38.375 21.9688C38.75 21.9687 39.125 21.9688 39.5 21.9688C40.7062 21.9688 41.9188 21.9687 43.125 21.9688C43.1769 21.9687 43.2294 21.9688 43.2812 21.9688C43.4819 21.9688 43.6744 21.9688 43.875 21.9688C43.9254 21.9788 44.0001 22.009 44 21.9688C44.0025 21.7914 43.998 21.6148 44 21.4375C44.0077 21.1099 43.9923 20.7963 44 20.4688C44.0041 20.2956 44.0034 20.1107 44 19.9375C44.0003 19.9053 43.9385 19.9375 43.9062 19.9375C43.6763 19.9374 43.4487 19.9375 43.2188 19.9375C42.7295 19.9375 42.2393 19.9375 41.75 19.9375C41 19.9375 40.25 19.9375 39.5 19.9375C38.75 19.9375 38 19.9375 37.25 19.9375C36.875 19.9375 37.25 19.9376 35 19.9375Z" fill="#000000" stroke="none"/>
</g>
<g opacity="1">
<path d="M4 20.96L13 20.96L13 20.9602L4 20.9602L4 20.96Z" fill="#000000" fill-rule="evenodd" stroke="none"/>
<path d="M4 19.9375C4.00052 20.1105 3.99406 19.9498 4 20.4688C3.99726 20.6503 4.00151 20.6979 4 20.9688C3.99361 21.24 3.99729 21.4374 4 21.4375C4.00594 21.9569 3.98882 21.407 4 21.9688C4.00001 21.9692 4.14914 21.9687 4.15625 21.9688C4.79406 21.9417 4.75878 21.846 5.125 21.9688C5.875 21.9688 6.625 21.9687 7.375 21.9688C7.75 21.9687 8.125 21.9688 8.5 21.9688C9.70622 21.9688 10.9188 21.9687 12.125 21.9688C12.1769 21.9687 12.2294 21.9688 12.2812 21.9688C12.4819 21.9688 12.6744 21.9688 12.875 21.9688C12.9254 21.9788 13.0001 22.009 13 21.9688C13.0025 21.7914 12.998 21.6148 13 21.4375C13.0077 21.1099 12.9923 20.7963 13 20.4688C13.0041 20.2956 13.0034 20.1107 13 19.9375C13.0003 19.9053 12.9385 19.9375 12.9062 19.9375C12.6763 19.9374 12.4487 19.9375 12.2188 19.9375C11.7295 19.9375 11.2393 19.9375 10.75 19.9375C10 19.9375 9.25 19.9375 8.5 19.9375C7.75 19.9375 7 19.9375 6.25 19.9375C5.875 19.9375 6.25 19.9376 4 19.9375Z" fill="#000000" stroke="none"/>
</g>
<g opacity="1">
<path d="M12.1001 13.7788L35.8999 13.7788L35.8999 13.7791L12.1001 13.7791L12.1001 13.7788Z" fill="#000000" fill-rule="evenodd" stroke="none"/>
<path d="M12.0938 12.25C12.0854 12.25 12.0984 12.9435 12.0938 13.7812C12.0919 14.1129 12.0933 14.1254 12.0938 14.375C12.0943 14.3281 12.0959 14.3122 12.0938 14.5C12.0908 14.7596 12.0888 15.0216 12.0938 15.2812C12.0938 15.2824 12.4508 15.2813 12.4688 15.2812C12.9608 15.2297 13.1601 15.1163 13.5938 15.2812C14.5854 15.2813 15.5708 15.2812 16.5625 15.2812C18.05 15.2813 19.5438 15.2812 21.0312 15.2812C22.0208 15.2812 23.0104 15.2813 24 15.2812C26.975 15.2813 29.9313 15.2812 32.9062 15.2812C33.4055 15.2812 33.907 15.2813 34.4062 15.2812C34.582 15.2813 34.7617 15.2812 34.9375 15.2812C35.1047 15.2812 35.2703 15.2812 35.4375 15.2812C35.5511 15.2812 35.6676 15.2813 35.7812 15.2812C35.7861 15.2812 35.9062 15.2816 35.9062 15.2812L35.9062 13.0312C35.9092 12.7741 35.904 12.5072 35.9062 12.25L12.0938 12.25Z" fill="#000000" stroke="none"/>
</g>
<g opacity="1">
<path d="M7 23L41 23L41 24L7 24L7 23Z" fill="#fbe6c5" fill-rule="evenodd" stroke="none"/>
<path d="M7 22C6.99721 22 7.00285 22.317 7 22.5C7 22.7578 7 22.7187 7 22.7812C7 22.8457 7 22.9043 7 22.9688C6.99959 22.9853 7.0004 22.983 7 23C7 23.0859 7 23.1641 7 23.25C6.9988 23.3389 6.99864 23.5 7 23.5C7.00081 23.683 6.99721 24 7 24C6.99851 24.2801 6.99029 24.4976 7 25C7.00011 25.0056 7.11955 24.9999 7.125 25C7.33247 25.0041 7.51126 25 7.71875 25C8.18083 25 8.66292 25 9.125 25C9.47917 25 9.83333 25 10.1875 25C10.5417 25 10.8958 25 11.25 25C13.375 25 15.5 25 17.625 25C22.9375 25.0001 28.25 24.9999 33.5625 25C35.3333 25 37.1042 25 38.875 25C39.2292 25 39.5833 25 39.9375 25C40.1759 25 40.4256 25.0608 40.6562 25C40.897 24.9366 40.9971 24.7319 41 24.5C41.0005 24.459 40.9995 24.416 41 24.375C41 24.3099 41 24.2526 41 24.1875C41 24.1328 40.9995 23.9766 41 24.0312C40.9967 24.004 41.0043 23.9979 41 23.9688C40.9996 24.0065 41 23.8815 41 23.8438C41 23.7721 41 23.6966 41 23.625C41 23.5795 40.9989 23.5455 41 23.5C41.0135 22.9214 41.2398 22 40.4375 22L7 22Z" fill="#fbe6c5" stroke="none"/>
</g>
<g opacity="1">
<path d="M9 23.4385L39 23.4385L39 23.4386L9 23.4386L9 23.4385Z" fill="#000000" fill-rule="evenodd" stroke="none"/>
<path d="M9 22.4375C8.99954 22.6105 8.99406 22.4185 9 22.9375C8.99715 23.1205 9.00155 23.1582 9 23.4375C8.99361 23.7087 8.99729 23.9374 9 23.9375C9.00081 24.1205 8.99721 24.4375 9 24.4375C10.875 24.4375 10.2175 24.3055 10.875 24.4375C11.5023 24.4375 12.1227 24.4375 12.75 24.4375C14 24.4375 15.25 24.4375 16.5 24.4375C18.375 24.4375 20.25 24.4375 22.125 24.4375C26.5 24.4376 30.875 24.4374 35.25 24.4375C36.0972 24.4375 36.9341 24.4375 37.7812 24.4375C38.1328 24.4375 38.4922 24.4375 38.8438 24.4375C38.8498 24.4375 39 24.4379 39 24.4375C39.0027 24.2706 38.9981 24.1044 39 23.9375C39.0164 23.2422 39.0154 23.0412 39 22.4375C39 22.4371 38.9359 22.4376 38.9062 22.4375C38.7817 22.4375 38.6558 22.4375 38.5312 22.4375C38.2529 22.4375 37.9658 22.4375 37.6875 22.4375C37.4993 22.4375 37.3132 22.4375 37.125 22.4375C36.5 22.4375 35.875 22.4375 35.25 22.4375C34.625 22.4375 34 22.4375 33.375 22.4375C32.75 22.4375 32.125 22.4375 31.5 22.4375C28.375 22.4376 25.25 22.4374 22.125 22.4375C20.25 22.4375 18.375 22.4375 16.5 22.4375C15.25 22.4375 14 22.4375 12.75 22.4375C12.125 22.4375 12.75 22.4376 9 22.4375Z" fill="#000000" stroke="none"/>
</g>
</g>
</svg>
